<?xml version="1.0" encoding="utf-8"?>
<!-- Generator: Adobe Illustrator 27.2.0, SVG Export Plug-In . SVG Version: 6.00 Build 0)  -->
<svg version="1.1" id="_Слой_1" xmlns="http://www.w3.org/2000/svg" xmlns:xlink="http://www.w3.org/1999/xlink" x="0px"
	 y="0px" viewBox="0 0 1080 1080" style="enable-background:new 0 0 1080 1080;" xml:space="preserve">
<style type="text/css">
	.st0{fill:#E6E6E6;}
	.st1{opacity:0.982;fill-rule:evenodd;clip-rule:evenodd;fill:#222222;enable-background:new    ;}
	.st2{opacity:0.986;fill-rule:evenodd;clip-rule:evenodd;fill:#222222;enable-background:new    ;}
	.st3{opacity:0.984;fill-rule:evenodd;clip-rule:evenodd;fill:#222222;enable-background:new    ;}
	.st4{opacity:0.993;fill-rule:evenodd;clip-rule:evenodd;fill:#222222;enable-background:new    ;}
</style>
<path class="st0" d="M202,0h676c111.6,0,202,90.4,202,202v676c0,111.6-90.4,202-202,202H202C90.4,1080,0,989.6,0,878V202
	C0,90.4,90.4,0,202,0z"/>
<g>
	<path class="st1" d="M231.5,216.7c65.8-5.4,107.9,23.4,126.3,86.4c7.9,63.9-18.4,106.5-78.8,128c-57.5,10.6-100.2-9.4-128-60.2
		c-19.6-52.2-8.6-96.6,33.1-133.1C198.6,227.5,214.4,220.5,231.5,216.7z"/>
</g>
<g>
	<path class="st2" d="M518,216.7c64.3-6.4,113.8,17.3,148.3,71.2c34.1,71.1,22.5,133.5-34.7,187.3c-47.3,34.5-98.1,40.7-152.6,18.6
		c-67-36-93.9-91.7-80.5-167C415.9,265.6,455.8,228.9,518,216.7z"/>
</g>
<g>
	<path class="st1" d="M809.5,216.7c54.2-5.6,94,15.4,119.5,62.7c19.6,52.2,8.6,96.6-33.1,133.1c-32.4,22.2-67.5,27.3-105.1,15.3
		c-45.3-19-69-53.2-71.2-102.5C723.8,267.4,753.8,231.2,809.5,216.7z"/>
</g>
<g>
	<path class="st3" d="M106.1,665.9c0-35.6,0-71.2,0-106.8c11.1-44.7,38.8-73.8,83.1-87.3c37.8-2.7,75.6-3.3,113.6-1.7
		c26.6,4.4,48.9,16.6,67,36.4c1,1.6,0.8,3-0.8,4.2c-75.4,50.5-114.4,121.4-117,212.7c-28.8,0.3-57.6,0-86.4-0.8
		C134.2,715.5,114.4,696.5,106.1,665.9z"/>
</g>
<g>
	<path class="st3" d="M973.9,559.1c0,35.6,0,71.2,0,106.8c-8.3,30.7-28.1,49.6-59.3,56.8c-28.8,0.8-57.6,1.1-86.4,0.8
		c-2.6-91.3-41.6-162.3-117-212.7c-1.6-1.2-1.9-2.6-0.8-4.2c18-19.9,40.3-32,67-36.4c37.9-1.6,75.8-1,113.6,1.7
		C935.2,485.3,962.9,514.4,973.9,559.1z"/>
</g>
<g>
	<path class="st4" d="M479,542.1c40.7-0.3,81.4,0,122,0.8c86.7,16.7,138.4,68.4,155.1,155.1c1.1,26.6,1.1,53.1,0,79.7
		c-10.5,48.9-40.1,78.5-89,89c-84.8,1.1-169.5,1.1-254.3,0c-48.9-10.5-78.5-40.1-89-89c-1.1-26.6-1.1-53.1,0-79.7
		C340.9,611.3,392.6,559.4,479,542.1z"/>
</g>
</svg>
