<?xml version="1.0" encoding="utf-8"?>
<!-- Generator: Adobe Illustrator 27.2.0, SVG Export Plug-In . SVG Version: 6.00 Build 0)  -->
<svg version="1.1" id="_Слой_1" xmlns="http://www.w3.org/2000/svg" xmlns:xlink="http://www.w3.org/1999/xlink" x="0px"
	 y="0px" viewBox="0 0 1080 1080" style="enable-background:new 0 0 1080 1080;" xml:space="preserve">
<style type="text/css">
	.st0{fill:#E6E6E6;}
	.st1{opacity:0.971;fill-rule:evenodd;clip-rule:evenodd;fill:#222222;enable-background:new    ;}
</style>
<path class="st0" d="M202,0h676c111.6,0,202,90.4,202,202v676c0,111.6-90.4,202-202,202H202C90.4,1080,0,989.6,0,878V202
	C0,90.4,90.4,0,202,0z"/>
<g>
	<path class="st1" d="M276.4,343.1c81.1-5.2,152.4,18.4,213.8,71c43,39.7,77.7,85.4,104.1,137.3c29.5,41.2,67.3,72.2,113.4,93.1
		c46.6,18.8,92.7,17.5,138.2-3.7c26.5-17.7,41.6-42.6,45.2-74.6C898.7,456.4,848,410,739.1,427c-27.5,6.2-52.6,17-75.2,32.3
		c-13.4,9.1-31.6,5.6-40.7-7.8c-3.8-5.6-7.7-11.3-11.7-16.8c-9.3-13.2-6.1-31.4,7.1-40.8c64.2-46,136.9-60.8,218.2-44.3
		c82.3,24.1,127.5,79.1,135.5,165c6.7,57.3-6.2,109.6-38.7,156.7c-42.4,45.6-94.9,67.7-157.6,66.4c-70.9-1-132.9-24.7-186.2-71
		c-16.3-15.7-32-32-47-48.8c-23.6-33.8-46.4-68.2-68.2-103.2c-31.2-40-70.8-68-118.9-83.9c-35.7-10.5-71.3-9.8-106.9,1.8
		c-35.4,15.8-55.4,43.2-59.9,82c-6.5,38.7,0.9,74.4,22.1,106.9c25.7,25.3,56.7,37.6,93.1,36.9c41.6-2.3,79-14.6,112.2-37.1
		c13.3-9.1,31.5-5.4,40.5,7.9c3.9,5.7,7.8,11.3,11.7,16.9c9.3,13.2,6.1,31.4-7,40.8c-63.7,45.7-135.8,60.4-216.4,44.3
		C162,708.2,116.2,653.8,107.8,568c-6.8-58.8,6.7-112.3,40.6-160.4C182.5,369.1,225.2,347.6,276.4,343.1z"/>
</g>
</svg>
