<?xml version="1.0" encoding="UTF-8"?>
<svg id="_Слой_1" data-name="Слой 1" xmlns="http://www.w3.org/2000/svg" viewBox="0 0 1080 1080">
  <defs>
    <style>
      .cls-1 {
        fill: #222;
      }

      .cls-2 {
        fill: #e5e5e5;
      }
    </style>
  </defs>
  <rect class="cls-2" width="1080" height="1080" rx="202.46" ry="202.46"/>
  <g>
    <path class="cls-1" d="m374.54,933.62c24.9-23.44,46.14-51.03,63.72-82.76,17.58-31.74,29.05-64.45,34.42-98.14,1.71-10.25,2.56-20.26,2.56-30.03,0-22.46-5.19-46.02-15.56-70.68-10.38-24.66-33.02-46.26-67.93-64.82,6.83-8.06,13.42-18.06,19.78-30.03,6.35-11.96,11.47-24.59,15.38-37.9,3.9-13.3,5.86-25.82,5.86-37.54,0-26.61-12.21-39.92-36.62-39.92l-6.96.37c-58.11,7.57-91.07,52.13-98.88,133.67-1.96,18.56-2.93,37.35-2.93,56.4,0,17.82,1.28,40.83,3.85,69.03s6.77,57.62,12.63,88.26,10.49,53.16,13.92,67.57l2.56,11.35c-7.82-16.85-18.01-32.35-30.58-46.51-12.58-14.16-26.73-25.7-42.48-34.61s-32.17-13.37-49.26-13.37c-30.76,0-58.1,15.87-82.03,47.61l26-45.41c27.1-45.41,45.28-80.44,54.57-105.1,6.1-16.85,9.16-35.4,9.16-55.66,0-9.28-.61-18.92-1.83-28.93-1.71-12.94-6.35-22.83-13.92-29.66-7.57-6.83-16.73-10.25-27.47-10.25-8.79,0-17.82,2.51-27.1,7.51-9.28,5.01-18.06,12.76-26.37,23.25,4.39-28.07,11.48-49.01,21.24-62.8,9.77-13.79,20.38-25.02,31.86-33.69,11.47-8.66,21.54-19.71,30.21-33.14,8.66-13.42,13.49-34.42,14.47-62.99-.25-39.3-8.42-70.8-24.54-94.48-16.11-23.68-33.82-41.38-53.1-53.1,17.82,0,35.58,1.22,53.28,3.66,17.7,2.44,35.76,5.25,54.2,8.42,18.43,3.18,37.35,6.04,56.76,8.61s39.24,3.85,59.51,3.85c27.83,0,56.64-3.78,86.43-11.35,29.78-7.56,61.03-21.48,93.75-41.75,0,8.79-2.38,18.07-7.14,27.83-4.76,9.77-10.87,19.84-18.31,30.21-7.45,10.38-15.32,20.82-23.62,31.31-13.43,16.61-24.78,32.59-34.06,47.97-7.82,12.45-11.72,23.93-11.72,34.42,0,2.44.24,4.76.73,6.96,0,16.61,7.51,29.97,22.52,40.1,15.01,10.13,33.99,15.2,56.95,15.2,10.25,0,21.24-1.22,32.96-3.66,0,10.75-2.14,21.92-6.41,33.51-4.27,11.6-9.22,23.62-14.83,36.07-10.5,21.73-18.56,44.68-24.17,68.85-1.96,8.55-2.93,17.21-2.93,26,0,16.61,4.51,36.25,13.55,58.96,9.03,22.71,33.45,49.32,73.24,79.83,0,11.72-4.39,27.41-13.18,47.06s-22.16,39.79-40.1,60.42c-17.94,20.63-40.41,38.75-67.38,54.38-26.98,15.62-58.54,25.51-94.67,29.66Zm-85.33-508.67c7.56,0,18.49-4.88,32.78-14.65,14.28-9.76,27.34-20.93,39.18-33.51,11.84-12.57,17.76-22.89,17.76-30.94,0-10.25-8.06-16.23-24.17-17.94-6.59-.49-15.14-.73-25.63-.73-17.82,0-30.64,7.69-38.45,23.07-4.39,8.3-6.59,19.29-6.59,32.96,0,11.96,1.71,25.88,5.13,41.75Z"/>
    <path class="cls-1" d="m900.32,973.53c10.74-10.75,18.8-25.51,24.17-44.31,3.66-12.7,5.49-25.88,5.49-39.55,0-6.11-.79-15.75-2.38-28.93-1.59-13.18-8.61-27.28-21.06-42.3s-30.89-24.23-55.3-27.65c13.42-9.76,20.14-24.66,20.14-44.68,0-5.37-.98-12.39-2.93-21.06-1.96-8.66-6.78-17.15-14.46-25.45-7.69-8.3-17.64-12.45-29.85-12.45-9.28,0-18.44,4.82-27.47,14.47-9.04,9.65-17.94,20.57-26.73,32.78-8.79,12.21-17.52,23.01-26.18,32.41-8.67,9.4-17.39,14.1-26.18,14.1.73-5.37,1.1-10.74,1.1-16.11,0-19.53-4.94-42.6-14.83-69.21-9.89-26.61-23.62-54.81-41.2-84.6-17.58-29.78-34.49-56.03-50.72-78.73-16.23-22.71-28.01-38.33-35.34-46.88,21.24-14.89,41.75-38.82,61.52-71.78s35.64-69.58,47.61-109.86c10.74-35.64,16.11-69.82,16.11-102.54,0-4.15-.43-16.3-1.28-36.44-.86-20.14-11.9-41.07-33.14-62.81,12.69.49,27.22,7.27,43.58,20.32,16.35,13.06,30.64,29.85,42.85,50.35,12.21,20.51,18.43,42.11,18.68,64.82-.25,6.11-1.16,12.27-2.75,18.49-1.59,6.23-2.38,12.63-2.38,19.23,0,11.96,3.54,22.52,10.62,31.68,7.08,9.16,16.05,16.36,26.92,21.61,10.86,5.25,21.91,7.87,33.14,7.87,8.06,0,15.75-1.46,23.07-4.39v4.03c0,12.7,5.31,28.93,15.93,48.71,10.62,19.78,23.92,38.21,39.92,55.3,15.99,17.09,29.6,25.63,40.83,25.63-41.99,46.63-66.78,86.19-74.34,118.65-2.93,12.21-4.39,23.8-4.39,34.79,0,34.67,19.65,73.12,58.96,115.36,12.94,14.16,24.35,28.56,34.24,43.21,9.89,14.65,15.68,30.39,17.39,47.24l.37,16.48c0,34.42-8.12,63.84-24.35,88.26-16.24,24.41-38.03,39.06-65.37,43.95Zm-97.05-447.88c14.65,0,28.13-4.45,40.47-13.37,12.32-8.91,18.49-20.69,18.49-35.34,0-10.25-7.08-24.54-21.24-42.85-14.16-18.31-30.03-34.91-47.61-49.8-17.58-14.89-31.62-22.34-42.11-22.34-7.57,0-14.59,4.82-21.06,14.47-6.47,9.65-13.13,21.3-19.96,34.97-8.06,16.11-17.21,31.44-27.47,45.96-10.25,14.53-22.58,24.11-36.99,28.75,17.58,19.29,33.81,28.93,48.71,28.93,19.53,0,37.11-17.58,52.73-52.73,0,15.14,2.68,27.35,8.06,36.62,5.37,9.28,12.39,16.06,21.06,20.32,8.66,4.27,17.63,6.41,26.92,6.41Zm-35.89,116.46c5.37,0,9.21-2.2,11.54-6.59,2.32-4.39,3.48-8.91,3.48-13.55,0-17.09-5.13-32.16-15.38-45.23-10.25-13.06-24.42-19.59-42.48-19.59-3.42,0-6.29.49-8.61,1.46-2.32.98-3.48,3.79-3.48,8.42,1.95,3.42,4.03,7.45,6.23,12.09,4.39,8.79,9.28,18.01,14.65,27.65,5.37,9.65,10.99,17.94,16.85,24.9s11.59,10.44,17.21,10.44Z"/>
  </g>
</svg>