<?xml version="1.0" encoding="utf-8"?>
<!-- Generator: Adobe Illustrator 27.2.0, SVG Export Plug-In . SVG Version: 6.00 Build 0)  -->
<svg version="1.1" id="_Слой_1" xmlns="http://www.w3.org/2000/svg" xmlns:xlink="http://www.w3.org/1999/xlink" x="0px"
	 y="0px" viewBox="0 0 1080 1080" style="enable-background:new 0 0 1080 1080;" xml:space="preserve">
<style type="text/css">
	.st0{fill:#E6E6E6;}
	.st1{opacity:0.997;fill-rule:evenodd;clip-rule:evenodd;fill:#222222;enable-background:new    ;}
	.st2{opacity:0.995;fill-rule:evenodd;clip-rule:evenodd;fill:#222222;enable-background:new    ;}
</style>
<path class="st0" d="M202,0h676c111.6,0,202,90.4,202,202v676c0,111.6-90.4,202-202,202H202C90.4,1080,0,989.6,0,878V202
	C0,90.4,90.4,0,202,0z"/>
<g>
	<path class="st1" d="M248.5,227.6c194.4-0.3,388.7,0,583.1,0.8c29.5,5.8,51.3,21.9,65.3,48.3c20.3,64.2,40.1,128.6,59.3,193.2
		c1.7,5.4,0.8,10.2-2.5,14.4c-275.7,1.1-551.4,1.1-827.2,0c-3.4-4.2-4.2-9-2.5-14.4c19.3-64.6,39-129,59.3-193.2
		C197.8,250.7,219.5,234.4,248.5,227.6z"/>
</g>
<g>
	<path class="st2" d="M973.9,556.5c0,74,0,148,0,222c-10.1,39.2-34.9,63.2-74.6,72c-239.6,1.1-479.1,1.1-718.7,0
		c-39.7-8.9-64.5-32.9-74.6-72c0-74,0-148,0-222c1.3-0.5,2.5-1.3,3.4-2.5c287-1.1,574-1.1,861.1,0
		C971.5,555.1,972.6,556,973.9,556.5z M284.1,609c29-3.5,49.6,7.8,61.9,33.9c8.1,31.6-2.4,54.4-31.4,68.6
		c-31.6,8.1-54.4-2.4-68.6-31.4C237.8,644.9,250.6,621.2,284.1,609z M445.1,620.9c39.4-1.1,56,17.6,50,55.9
		c-9,17.4-23.4,25.8-43.2,25.4c-39.9-4.1-53.2-25.1-39.8-62.7C420.6,628.6,431.6,622.4,445.1,620.9z M594.2,620.9
		c39.4-1.1,56,17.6,50,55.9c-9,17.4-23.4,25.8-43.2,25.4c-39.9-4.1-53.2-25.1-39.8-62.7C569.8,628.6,580.8,622.4,594.2,620.9z"/>
</g>
</svg>
