<?xml version="1.0" encoding="UTF-8"?>
<svg id="_Слой_1" data-name="Слой 1" xmlns="http://www.w3.org/2000/svg" viewBox="0 0 1080 1080">
  <defs>
    <style>
      .cls-1 {
        fill: #222;
      }

      .cls-2 {
        fill: #e6e6e6;
      }
    </style>
  </defs>
  <rect class="cls-2" x="0" y="0" width="1080" height="1080" rx="202" ry="202"/>
  <g>
    <path class="cls-1" d="m364.98,831.65c-9.04-30.03-19.96-61.4-32.78-94.12-12.82-32.71-28.56-63.78-47.24-93.2-18.68-29.42-41.44-54.26-68.3-74.52,15.38-.73,24.78-5.98,28.2-15.75,2.93-8.06,4.39-21.85,4.39-41.38l-.37-13.55c0-16.6-1.83-29.3-5.49-38.09s-8.48-16.05-14.47-21.79c-5.98-5.73-12.51-11.17-19.59-16.3-9.76-6.83-19.16-15.44-28.2-25.82-9.03-10.37-15.99-25.45-20.87-45.23-3.17-13.18-4.76-29.78-4.76-49.8,0-10.01.37-20.87,1.1-32.59,5.62,14.16,18.68,26.68,39.18,37.54,20.51,10.87,38.21,16.3,53.1,16.3,2.44,38.09,12.08,70.07,28.93,95.95,16.85,25.88,32.96,41.63,48.34,47.24-8.06,16.11-12.08,37.72-12.08,64.82,0,19.78,2.13,40.59,6.41,62.44,4.27,21.85,10.92,40.65,19.96,56.4,9.03,15.75,19.9,23.87,32.59,24.35,15.62-1.22,28.5-13.73,38.64-37.54,10.13-23.8,17.88-54.02,23.25-90.64,7.56-51.02,11.35-105.96,11.35-164.79s-3.3-98.75-9.89-121.95c3.17,3.42,6.35,7.08,9.52,10.99,5.37,6.35,10.74,12.03,16.11,17.03,5.37,5.01,10.99,7.51,16.85,7.51,2.68,0,5.49-.73,8.42-2.2,9.03-5.13,13.55-17.09,13.55-35.89,0-12.45-2.44-26.67-7.32-42.66-4.89-15.99-13.86-31.13-26.92-45.41-13.06-14.28-30.21-23.25-51.45-26.92,25.14-9.28,46.88-13.92,65.19-13.92,21.97,0,39.49,5.56,52.55,16.66,13.06,11.11,22.52,25.76,28.38,43.95,5.86,18.19,8.79,38.03,8.79,59.51-.25,21.73-2.63,43.34-7.14,64.82-4.52,21.49-10.44,41.26-17.76,59.33-17.09,38.82-25.64,70.68-25.64,95.58s12.33,43.95,36.99,60.06c-14.16,4.64-29.97,15.93-47.42,33.87-17.46,17.94-32.9,38.64-46.33,62.07-15.38,26.86-23.07,51.15-23.07,72.88,0,18.07,7.93,32.11,23.8,42.11-31.49,1.96-53.9,10.75-67.2,26.37-13.31,15.63-23.75,37.72-31.31,66.28Z"/>
    <path class="cls-1" d="m436.39,930.17c34.92-30.76,58.59-55.42,71.04-73.97,11.72-17.34,17.58-31.49,17.58-42.48,0-.49-.24-3.66-.73-9.52-.49-5.86-3.54-13.18-9.16-21.97-4.63-8.06-7.81-17.09-9.52-27.1-.49-2.2-.73-4.51-.73-6.96,0-8.54,2.69-18.8,8.06-30.76,6.11-11.23,14.04-23.19,23.8-35.89,8.79-11.72,16.78-23.56,23.99-35.52,7.2-11.96,10.8-23.56,10.8-34.79,0-12.94-5.25-19.41-15.75-19.41-4.63,0-9.4.98-14.28,2.93,5.37-15.87,13.24-28.8,23.62-38.82,10.37-10.01,21.85-19.28,34.42-27.83,12.57-8.54,24.66-18.37,36.25-29.48,11.59-11.11,21.24-25.51,28.93-43.21,7.69-17.7,11.54-41.2,11.54-70.5,0-13.42-1.1-25.02-3.3-34.79-.98-3.42-1.46-6.96-1.46-10.62,0-12.21,5.49-24.35,16.48-36.44s24.47-23.8,40.47-35.16c15.99-11.35,31.92-21.91,47.79-31.68,19.28-12.21,34.3-22.71,45.04-31.49,3.42.49,5.13,5.49,5.13,15.01s-1.04,19.41-3.11,28.93c-2.08,9.52-4.46,18.99-7.14,28.38-2.69,9.4-5.01,18.68-6.96,27.83-1.96,9.16-2.93,18.37-2.93,27.65,0,30.76,3.17,57.5,9.52,80.2,7.81,28.08,19.78,42.11,35.89,42.11,4.15,0,8.54-.97,13.18-2.93-12.7,22.71-19.54,46.14-20.51,70.31l-.37,10.62c0,20.75,2.68,42.61,8.06,65.55,5.37,22.95,11.84,46.14,19.41,69.58,14.65,46.14,21.97,79.35,21.97,99.61,0,8.55-.86,16.61-2.56,24.17-6.59,21.48-17.52,39.12-32.78,52.92-15.26,13.79-27.41,21.06-36.44,21.79,17.09-35.4,25.63-64.21,25.63-86.43,0-3.42-.86-11.59-2.56-24.54-1.71-12.94-10.01-25.27-24.9-36.99-16.11-12.69-33.08-22.58-50.9-29.66,6.59-9.52,11.72-21.97,15.38-37.35,2.93-13.18,4.39-26.73,4.39-40.65,0-1.95-.18-7.38-.55-16.3-.37-8.91-3.54-18.92-9.52-30.03-5.99-11.11-15.2-16.66-27.65-16.66h-1.83c-20.75,1.96-41.75,13.55-62.99,34.79s-38.88,45.9-52.92,73.97c-14.04,28.08-21.06,53.71-21.06,76.9v2.2c1.22,16.36,5.86,28.26,13.92,35.71,8.06,7.45,17.94,11.17,29.66,11.17,13.18,0,27.22-3.9,42.11-11.72-11.96,23.68-32.23,45.16-60.79,64.45-28.56,19.28-59.69,36.31-93.38,51.09-33.69,14.77-63.84,27.16-90.45,37.17l-16.85,6.59Zm270.63-441.65c10.74-6.83,20.81-11.54,30.21-14.1,9.4-2.56,20.45-3.84,33.14-3.84l-3.66-9.52c-4.64-11.72-8.85-24.84-12.63-39.37-3.79-14.52-5.68-32.41-5.68-53.65l-15.01,40.65c-6.84,18.07-12.94,34.73-18.31,49.99-5.37,15.26-8.06,25.21-8.06,29.85Z"/>
  </g>
</svg>